<svg xmlns="http://www.w3.org/2000/svg" width="167.576" height="128.608" viewBox="0 0 167.576 128.608">
    <defs>
        <style>
            .cls-1{fill:#322753}.cls-2{fill:#b5a3ac}.cls-3{fill:none}
        </style>
    </defs>
    <g id="Group_411" data-name="Group 411" transform="translate(-38.502 -21.44)">
        <path id="Rectangle_113" d="M0 0h167.576v28.093H0z" class="cls-1" data-name="Rectangle 113" transform="translate(38.502 108.834)"/>
        <g id="Group_407" data-name="Group 407" transform="translate(44.896 82.78)">
            <path id="Path_379" d="M61.52 108.889a6.728 6.728 0 0 1-1.635 2.412 7.921 7.921 0 0 1-2.69 1.648 10.456 10.456 0 0 1-3.715.608 11.919 11.919 0 0 1-3.148-.386 6.084 6.084 0 0 1-2.405-1.248 5.532 5.532 0 0 1-1.544-2.264 9.636 9.636 0 0 1-.538-3.433V92.482h2.742v14.153a8.35 8.35 0 0 0 .334 2.578 3.788 3.788 0 0 0 .976 1.615 3.582 3.582 0 0 0 1.594.843 9.1 9.1 0 0 0 2.213.242 10.962 10.962 0 0 0 2.742-.312 3.874 3.874 0 0 0 1.828-.968 3.7 3.7 0 0 0 .812-1.645 10.138 10.138 0 0 0 .264-2.438V92.482h2.721v13.46a7.917 7.917 0 0 1-.551 2.947z" class="cls-2" data-name="Path 379" transform="translate(-45.844 -91.953)"/>
            <path id="Path_380" d="M86.774 113.353L72.093 97.148h-.06q.038 2.3.08 4.185c.012.543.024 1.08.03 1.614s.015 1.027.022 1.471.012.835.019 1.158.01.549.01.672v7h-1.868V92.317h1.238l14.7 16.162h.02q-.04-2.133-.059-3.959c0-.515 0-1.037-.011-1.563s-.014-1.026-.021-1.493-.01-.883-.01-1.251v-7.736h1.868v20.876z" class="cls-2" data-name="Path 380" transform="translate(-49.005 -91.932)"/>
            <path id="Path_381" d="M96.65 113.273V92.482h2.823v20.791z" class="cls-2" data-name="Path 381" transform="translate(-52.405 -91.953)"/>
            <path id="Path_382" d="M108.259 113.273a6.031 6.031 0 0 1-1.148 3.8 8.325 8.325 0 0 1-3.319 2.438l-.59-.956a4.282 4.282 0 0 0 1.126-1.085 5.23 5.23 0 0 0 .681-1.35 7.651 7.651 0 0 0 .334-1.533 14.42 14.42 0 0 0 .091-1.656V92.482h2.823z" class="cls-2" data-name="Path 382" transform="translate(-53.251 -91.953)"/>
            <path id="Path_383" d="M127.489 113.195l-2.6-7.618-8 .1-2.8 7.514h-2.071l8.245-20.611 2.437-.709 7.715 21.32zm-3.025-8.976l-3.453-9.707-3.613 9.707z" class="cls-2" data-name="Path 383" transform="translate(-54.389 -91.875)"/>
        </g>
        <g id="Group_408" data-name="Group 408" transform="translate(44.663 142.276)">
            <path id="Path_384" d="M48.849 167.965a3.608 3.608 0 0 1-1.514-.284 2.5 2.5 0 0 1-1.014-.807 3.4 3.4 0 0 1-.566-1.245 6.781 6.781 0 0 1-.179-1.614 4.355 4.355 0 0 1 .174-1.285 3.681 3.681 0 0 1 .469-.987 3.256 3.256 0 0 1 .692-.723 4.163 4.163 0 0 1 .833-.478 4.238 4.238 0 0 1 .9-.27 5.448 5.448 0 0 1 .887-.078 14.484 14.484 0 0 1 1.149.062c.189.018.361.039.524.064a4.042 4.042 0 0 1 .4.073l-.288 1.08c-.1-.028-.25-.064-.44-.1s-.394-.076-.61-.106-.43-.057-.641-.079a4.524 4.524 0 0 0-.529-.037c-.159 0-.3.006-.415.014a1.911 1.911 0 0 0-.327.057 1.289 1.289 0 0 0-.286.1 1.891 1.891 0 0 0-.277.163 1.327 1.327 0 0 0-.478.908 9.753 9.753 0 0 0-.122 1.665 4.531 4.531 0 0 0 .474 2.305 1.651 1.651 0 0 0 1.533.787c.2 0 .4-.009.616-.022a5.991 5.991 0 0 0 .632-.068 6.743 6.743 0 0 0 1.182-.265v.631a5.474 5.474 0 0 1-.642.233 8.004 8.004 0 0 1-.707.168 7.139 7.139 0 0 1-.725.107 6.751 6.751 0 0 1-.705.031z" class="cls-2" data-name="Path 384" transform="translate(-45.576 -160.193)"/>
            <path id="Path_385" d="M72.153 164.743h-.519v3.124h-1.547V160.3c.152-.011.32-.019.5-.03s.366-.017.556-.029.381-.008.578-.014.381-.008.557-.008a3.615 3.615 0 0 1 2.089.5 1.8 1.8 0 0 1 .711 1.572 2.608 2.608 0 0 1-.121.83 2.149 2.149 0 0 1-.324.616 1.965 1.965 0 0 1-.46.444 3.643 3.643 0 0 1-.539.3c.227.388.442.756.648 1.1a8.4 8.4 0 0 0 .611.906 2.935 2.935 0 0 0 .622.616 1.163 1.163 0 0 0 .68.225h.052v.481a2.952 2.952 0 0 1-.422.1 3.927 3.927 0 0 1-.533.033 4.043 4.043 0 0 1-.515-.028 1.727 1.727 0 0 1-.437-.115 1.5 1.5 0 0 1-.4-.245 2.746 2.746 0 0 1-.4-.433 6.715 6.715 0 0 1-.444-.656 14.74 14.74 0 0 1-.519-.927zM71.9 164a2.517 2.517 0 0 0 .625-.079 1.591 1.591 0 0 0 .469-.193 1.753 1.753 0 0 0 .178-.146.785.785 0 0 0 .16-.24 1.554 1.554 0 0 0 .111-.38 3.406 3.406 0 0 0 .041-.579 2 2 0 0 0-.094-.65.988.988 0 0 0-.273-.427 1.118 1.118 0 0 0-.448-.228 2.413 2.413 0 0 0-.623-.071c-.055 0-.121 0-.2.009s-.152.011-.215.02V164z" class="cls-2" data-name="Path 385" transform="translate(-48.741 -160.196)"/>
            <path id="Path_386" d="M98.87 167.906l-5.354-5.314H93.5l.028 1.225c.006.158.01.318.013.478s0 .309.007.444.005.256.007.354 0 .177 0 .222v2.553h-.9v-7.634h.673l5.359 5.3h.008q-.014-.611-.022-1.147v-.462c0-.153-.006-.3-.009-.444s0-.27 0-.391v-2.8h.9v7.617z" class="cls-2" data-name="Path 386" transform="translate(-51.655 -160.198)"/>
            <path id="Path_387" d="M121.735 167.877h-4.569V160.3h4.406l-.074.768-2.785.039v2.463l2.622.031-.075.705-2.547.057v2.708l3.1.062z" class="cls-2" data-name="Path 387" transform="translate(-54.82 -160.206)"/>
            <path id="Path_388" d="M147.805 164.939l-1.687-.09.08-.617h3.185v3.1a6.394 6.394 0 0 1-.637.226 11.496 11.496 0 0 1-1.735.352 7.392 7.392 0 0 1-.916.056 3.589 3.589 0 0 1-1.509-.284 2.523 2.523 0 0 1-1.01-.807 3.415 3.415 0 0 1-.566-1.245 6.736 6.736 0 0 1-.179-1.614 4 4 0 0 1 .3-1.6 3.37 3.37 0 0 1 .854-1.2 3.7 3.7 0 0 1 1.322-.759 5.191 5.191 0 0 1 1.7-.264 11.117 11.117 0 0 1 1.079.056c.186.017.359.045.524.068a3.038 3.038 0 0 1 .411.076l-.266 1.1a8.234 8.234 0 0 0-1.1-.233c-.217-.03-.427-.057-.642-.079a4.959 4.959 0 0 0-.574-.037 4.638 4.638 0 0 0-.782.064 1.62 1.62 0 0 0-.676.29.868.868 0 0 0-.274.4 2.953 2.953 0 0 0-.163.608 6.079 6.079 0 0 0-.082.742q-.024.393-.024.773a5.432 5.432 0 0 0 .4 2.325 1.314 1.314 0 0 0 1.256.807c.143 0 .294-.006.455-.017s.317-.019.473-.042.3-.039.438-.062a2.782 2.782 0 0 0 .351-.064z" class="cls-2" data-name="Path 388" transform="translate(-58.134 -160.193)"/>
            <path id="Path_389" d="M177.232 164.043a5.154 5.154 0 0 1-.24 1.629 3.274 3.274 0 0 1-.721 1.234 3.109 3.109 0 0 1-1.2.785 4.559 4.559 0 0 1-1.673.275 4.424 4.424 0 0 1-1.673-.281 3 3 0 0 1-1.148-.792 3.231 3.231 0 0 1-.664-1.238 5.747 5.747 0 0 1-.211-1.611 5.446 5.446 0 0 1 .218-1.6 3.145 3.145 0 0 1 .672-1.212 2.914 2.914 0 0 1 1.15-.767 4.684 4.684 0 0 1 1.669-.265 4.771 4.771 0 0 1 1.669.265 3.139 3.139 0 0 1 1.192.767 3.2 3.2 0 0 1 .717 1.212 4.951 4.951 0 0 1 .243 1.599zm-1.628.009a5.53 5.53 0 0 0-.125-1.244 2.647 2.647 0 0 0-.394-.933 1.733 1.733 0 0 0-.68-.591 2.245 2.245 0 0 0-.992-.2 4.286 4.286 0 0 0-.937.1 1.918 1.918 0 0 0-.685.3 1.361 1.361 0 0 0-.366.835 10.219 10.219 0 0 0-.116 1.738 6.652 6.652 0 0 0 .1 1.237 2.885 2.885 0 0 0 .343.954 1.667 1.667 0 0 0 .641.618 2.092 2.092 0 0 0 1 .217 4.105 4.105 0 0 0 1.018-.1 2.412 2.412 0 0 0 .678-.287.674.674 0 0 0 .222-.329 3.227 3.227 0 0 0 .159-.6 7.634 7.634 0 0 0 .1-.8c.023-.305.03-.606.03-.915z" class="cls-2" data-name="Path 389" transform="translate(-61.604 -160.194)"/>
            <path id="Path_390" d="M198.246 164.743h-.517v3.124h-1.548V160.3c.152-.011.319-.019.5-.03s.367-.017.556-.029.383-.008.577-.014.381-.008.558-.008a3.613 3.613 0 0 1 2.089.5 1.8 1.8 0 0 1 .712 1.572 2.606 2.606 0 0 1-.123.83 2.148 2.148 0 0 1-.323.616 1.974 1.974 0 0 1-.458.444 3.808 3.808 0 0 1-.542.3c.228.388.443.756.65 1.1a8.158 8.158 0 0 0 .61.906 2.952 2.952 0 0 0 .621.616 1.165 1.165 0 0 0 .681.225h.051v.481a2.9 2.9 0 0 1-.422.1 3.927 3.927 0 0 1-.533.033 4.062 4.062 0 0 1-.515-.028 1.737 1.737 0 0 1-.437-.115 1.5 1.5 0 0 1-.4-.245 2.748 2.748 0 0 1-.4-.433 7.04 7.04 0 0 1-.444-.656c-.158-.255-.33-.57-.519-.927zm-.252-.748a2.513 2.513 0 0 0 .626-.079 1.6 1.6 0 0 0 .469-.193 1.971 1.971 0 0 0 .179-.146.8.8 0 0 0 .159-.24 1.509 1.509 0 0 0 .113-.38 3.623 3.623 0 0 0 .039-.579 2 2 0 0 0-.093-.65.975.975 0 0 0-.274-.427 1.114 1.114 0 0 0-.447-.228 2.418 2.418 0 0 0-.623-.071c-.055 0-.121 0-.2.009s-.153.011-.215.02V164z" class="cls-2" data-name="Path 390" transform="translate(-65.024 -160.196)"/>
            <path id="Path_391" d="M223.039 167.877h-4.568V160.3h4.406l-.074.768-2.784.039v2.463l2.62.031-.073.705-2.547.057v2.708l3.094.062z" class="cls-2" data-name="Path 391" transform="translate(-67.902 -160.206)"/>
        </g>
        <g id="Group_409" data-name="Group 409" transform="translate(44.374 112.754)">
            <path id="Path_392" d="M54.01 140.93q0 3.615-5.351 3.619a12.338 12.338 0 0 1-3.414-.425l.41-2.376a8.8 8.8 0 0 0 3 .543 5.787 5.787 0 0 0 2.006-.239.833.833 0 0 0 .562-.809q0-.882-2.027-1.676a9.665 9.665 0 0 1-2.58-1.375 2.913 2.913 0 0 1-1.109-2.3 3.163 3.163 0 0 1 1.193-2.582 5.366 5.366 0 0 1 3.473-.979 11.958 11.958 0 0 1 3.352.374l-.41 2.387a8.021 8.021 0 0 0-2.942-.531c-1.288 0-1.929.329-1.929.987a.971.971 0 0 0 .411.819 7.817 7.817 0 0 0 1.674.776 8.6 8.6 0 0 1 2.545 1.313 3.1 3.1 0 0 1 1.136 2.474z" class="cls-2" data-name="Path 392" transform="translate(-45.245 -127.074)"/>
            <path id="Path_393" d="M65.685 132.772l-.7 2.82a4.779 4.779 0 0 0-1.81-.362 2.258 2.258 0 0 0-2.339 1.592q0 4.816.073 7.4H57.7q.206-3.624.2-5.931a23.714 23.714 0 0 0-.6-5.438l3.075-.338q.205 1.329.2 1.555h.192a3.387 3.387 0 0 1 2.956-1.7 5.723 5.723 0 0 1 1.962.402z" class="cls-2" data-name="Path 393" transform="translate(-46.802 -127.079)"/>
            <path id="Path_394" d="M79.115 137.255c0 .408-.024.945-.072 1.606l-7.766.132a3.552 3.552 0 0 0 1.17 2.267 3.776 3.776 0 0 0 2.628.9 14.946 14.946 0 0 0 3.846-.545l-.241 2.339a12.2 12.2 0 0 1-4.124.6 6.257 6.257 0 0 1-4.767-1.746 5.9 5.9 0 0 1-1.659-4.209 6.734 6.734 0 0 1 1.57-4.449 5.38 5.38 0 0 1 4.371-1.886 4.847 4.847 0 0 1 3.8 1.383 5.209 5.209 0 0 1 1.244 3.608zm-2.822-.11q0-2.771-2.363-2.773-2.255 0-2.675 2.869z" class="cls-2" data-name="Path 394" transform="translate(-48.2 -127.065)"/>
            <path id="Path_395" d="M94.2 143.443l-2.856.1a4.5 4.5 0 0 1-.084-.886h-.181A4.984 4.984 0 0 1 87.7 143.8a4.492 4.492 0 0 1-3.678-1.676 6.1 6.1 0 0 1-1.363-3.979 7.406 7.406 0 0 1 1.483-4.6 4.884 4.884 0 0 1 4.124-1.959 4.277 4.277 0 0 1 2.567.641H91q0-2.844-.277-5.725l3.412-.1q-.192 2.812-.194 8.081-.002 5.342.259 8.96zm-3.021-2.743q0-3.846-.181-6.366a3.423 3.423 0 0 0-1.989-.579 2.624 2.624 0 0 0-2.364 1.184 5.168 5.168 0 0 0-.772 2.891 4.572 4.572 0 0 0 .748 2.623 2.374 2.374 0 0 0 2.074 1.1 3.079 3.079 0 0 0 2.484-.853z" class="cls-2" data-name="Path 395" transform="translate(-50.076 -126.308)"/>
            <path id="Path_396" d="M109.668 144.223h-3.207q.265-3.046.264-6.173a4.206 4.206 0 0 0-.559-2.566 2.091 2.091 0 0 0-1.706-.675 4.217 4.217 0 0 0-2.6.939q.061 4.708.062 8.475h-3.249q.217-3.767.217-5.931a24.183 24.183 0 0 0-.59-5.438l3.086-.338.2 1.279h.194a5.654 5.654 0 0 1 3.8-1.426 4.684 4.684 0 0 1 2.971.878 3.9 3.9 0 0 1 1.115 3.222c0 .236-.01.548-.03.939s-.03.787-.03 1.2q.002 1.628.062 5.615z" class="cls-2" data-name="Path 396" transform="translate(-52.096 -127.079)"/>
            <path id="Path_397" d="M117.677 131.77q-.169 3.656-.169 7.26 0 .941.05 2.587c.03 1.1.048 1.83.048 2.2q0 4.451-3.558 5.16l-.881-1.684a3.509 3.509 0 0 0 1.165-2.019 31.734 31.734 0 0 0 .307-5.615 50.323 50.323 0 0 0-.434-7.55zm.53-3.4a2.045 2.045 0 0 1-.567 1.433 2.019 2.019 0 0 1-1.566.616 1.7 1.7 0 0 1-1.322-.529 1.851 1.851 0 0 1-.475-1.279 2.007 2.007 0 0 1 .567-1.423 2.064 2.064 0 0 1 1.581-.6 1.664 1.664 0 0 1 1.318.521 1.842 1.842 0 0 1 .465 1.262z" class="cls-2" data-name="Path 397" transform="translate(-54.016 -126.332)"/>
            <path id="Path_398" d="M133.037 138.211a6.12 6.12 0 0 1-1.869 4.752 6.3 6.3 0 0 1-4.4 1.712 5.954 5.954 0 0 1-4.137-1.561 5.627 5.627 0 0 1-1.723-4.394 6.165 6.165 0 0 1 1.881-4.778 6.328 6.328 0 0 1 4.414-1.721 5.876 5.876 0 0 1 4.117 1.575 5.682 5.682 0 0 1 1.717 4.415zm-3.147.363a5.04 5.04 0 0 0-.82-2.936 2.491 2.491 0 0 0-2.133-1.184 2.462 2.462 0 0 0-2.081 1.109 4.607 4.607 0 0 0-.8 2.769 5.024 5.024 0 0 0 .821 2.936 2.5 2.5 0 0 0 4.213.082 4.622 4.622 0 0 0 .8-2.776z" class="cls-2" data-name="Path 398" transform="translate(-55.015 -127.059)"/>
            <path id="Path_399" d="M145.443 140.172q0 3.615-5.353 3.619a12.335 12.335 0 0 1-3.413-.425l.409-2.376a8.812 8.812 0 0 0 3 .543 5.8 5.8 0 0 0 2.007-.239.834.834 0 0 0 .561-.809q0-.882-2.026-1.676a9.708 9.708 0 0 1-2.581-1.375 2.912 2.912 0 0 1-1.108-2.3 3.163 3.163 0 0 1 1.193-2.579 5.361 5.361 0 0 1 3.471-.979 11.971 11.971 0 0 1 3.354.374l-.411 2.387a8.023 8.023 0 0 0-2.943-.531q-1.929 0-1.927.987a.974.974 0 0 0 .409.819 7.823 7.823 0 0 0 1.676.776 8.606 8.606 0 0 1 2.545 1.313 3.1 3.1 0 0 1 1.137 2.471zm-.241-13.71a11.078 11.078 0 0 1-1.145 1.982 14.962 14.962 0 0 0-1.147 1.923h-3.158a15.006 15.006 0 0 0-1.146-1.923 11.1 11.1 0 0 1-1.144-1.982h1.869a14.939 14.939 0 0 0 2 2.337 14.9 14.9 0 0 0 2-2.337z" class="cls-2" data-name="Path 399" transform="translate(-57.052 -126.316)"/>
            <path id="Path_400" d="M160.256 143.438h-3.689a11.624 11.624 0 0 0-1.833-3.018c-1.222-1.718-2-2.573-2.339-2.573h-.157c0 1.645.048 3.512.145 5.59h-3.2q.146-5.628.145-8.956a74.016 74.016 0 0 0-.374-7.991l3.425-.2q-.169 4.58-.169 8.188c0 .3 0 .9.011 1.785h.169q.337 0 1.918-1.948a7.919 7.919 0 0 0 1.58-2.331h3.592q0 .371-1.639 2.083a16.363 16.363 0 0 1-2.654 2.363v.182a16.018 16.018 0 0 1 3.092 3.563 12.48 12.48 0 0 1 1.977 3.263z" class="cls-2" data-name="Path 400" transform="translate(-58.637 -126.294)"/>
            <path id="Path_401" d="M175.237 138.211a6.12 6.12 0 0 1-1.869 4.752 6.3 6.3 0 0 1-4.4 1.712 5.941 5.941 0 0 1-4.133-1.561 5.625 5.625 0 0 1-1.725-4.394 6.165 6.165 0 0 1 1.881-4.778 6.329 6.329 0 0 1 4.414-1.721 5.873 5.873 0 0 1 4.117 1.575 5.676 5.676 0 0 1 1.715 4.415zm-3.146.363a5.046 5.046 0 0 0-.82-2.936 2.494 2.494 0 0 0-2.135-1.184 2.461 2.461 0 0 0-2.08 1.109 4.613 4.613 0 0 0-.8 2.769 5.043 5.043 0 0 0 .82 2.936 2.5 2.5 0 0 0 2.134 1.192 2.467 2.467 0 0 0 2.08-1.11 4.616 4.616 0 0 0 .801-2.776z" class="cls-2" data-name="Path 401" transform="translate(-60.465 -127.059)"/>
            <path id="Path_402" d="M183.151 143.438h-3.292q.179-4.129.18-8.956a72.814 72.814 0 0 0-.373-7.991l3.484-.2q-.182 3.412-.182 8.188.001 4.849.183 8.959z" class="cls-2" data-name="Path 402" transform="translate(-62.603 -126.294)"/>
            <path id="Path_403" d="M196.585 144.214l-2.845.1a2.607 2.607 0 0 1-.192-.917h-.158a5.353 5.353 0 0 1-3.581 1.13 3.752 3.752 0 0 1-2.5-.838 2.752 2.752 0 0 1-1-2.224 3.608 3.608 0 0 1 1.549-3q1.548-1.168 5.432-1.243a3.778 3.778 0 0 0 .023-.408 1.937 1.937 0 0 0-.626-1.718 4.468 4.468 0 0 0-2.3-.416 13.163 13.163 0 0 0-3.557.483l.264-2.222a14.918 14.918 0 0 1 4.63-.568 5.442 5.442 0 0 1 3.372.917 3.829 3.829 0 0 1 1.188 3.211q0 .5-.044 1.844a72.716 72.716 0 0 0-.043 1.783 17.836 17.836 0 0 0 .388 4.086zm-3.22-2.508a63.126 63.126 0 0 1-.071-2.809q-4.112 0-4.112 2.084 0 1.438 1.808 1.437a3.849 3.849 0 0 0 2.375-.712z" class="cls-2" data-name="Path 403" transform="translate(-63.461 -127.079)"/>
            <path id="Path_404" d="M209.819 141.693l-.206 2.3a6.4 6.4 0 0 1-2.979.579 6.334 6.334 0 0 1-4.78-1.735 5.81 5.81 0 0 1-1.67-4.172 6.3 6.3 0 0 1 1.748-4.418 6.214 6.214 0 0 1 4.787-1.889 9.426 9.426 0 0 1 2.641.337l-.41 2.463a6.381 6.381 0 0 0-2.483-.461 2.822 2.822 0 0 0-2.3 1.032 3.882 3.882 0 0 0-.843 2.539 4.042 4.042 0 0 0 1 2.773 3.578 3.578 0 0 0 2.833 1.136 9.577 9.577 0 0 0 2.662-.484z" class="cls-2" data-name="Path 404" transform="translate(-65.252 -127.077)"/>
            <path id="Path_405" d="M223.14 144.214l-2.845.1a2.613 2.613 0 0 1-.194-.917h-.156a5.355 5.355 0 0 1-3.581 1.13 3.755 3.755 0 0 1-2.5-.838 2.759 2.759 0 0 1-.995-2.224 3.608 3.608 0 0 1 1.549-3q1.551-1.168 5.432-1.243a3.6 3.6 0 0 0 .025-.408 1.94 1.94 0 0 0-.627-1.718 4.473 4.473 0 0 0-2.3-.416 13.174 13.174 0 0 0-3.558.483l.266-2.222a14.923 14.923 0 0 1 4.631-.568 5.446 5.446 0 0 1 3.37.917 3.829 3.829 0 0 1 1.186 3.211q0 .5-.04 1.844c-.03.892-.044 1.485-.044 1.783a17.739 17.739 0 0 0 .381 4.086zm-3.219-2.508a65.033 65.033 0 0 1-.073-2.809q-4.111 0-4.111 2.084 0 1.438 1.81 1.437a3.853 3.853 0 0 0 2.374-.712z" class="cls-2" data-name="Path 405" transform="translate(-66.89 -127.079)"/>
        </g>
        <g id="Group_410" data-name="Group 410" transform="translate(127.818 21.44)">
            <path id="Path_406" d="M173.461 75.5c-1.777 1.577-3.527 3.188-5.341 4.724a6.867 6.867 0 0 0-2.728 4.682 5.111 5.111 0 0 1-1.578 3.633c-3.078 2.468-2.433 5.429-1.193 8.444q2.9 7.031 5.945 14.008l.032.088h9.536a39.856 39.856 0 0 1-.863-5.716c-1.136-9.97-2.528-19.907-3.81-29.863z" class="cls-3" data-name="Path 406" transform="translate(-143.713 -28.421)"/>
            <path id="Path_407" d="M197.618 104.711q.432-10.878 1.089-21.744a6.787 6.787 0 0 0-3.268-6.8c-4.284-2.831-6.931-7.339-10.377-11.037-.421-.452-.691-1.049-1.437-1-1.147 4.617.949 8.753 2.128 12.949 3.018 10.741 5.517 21.592 7.677 32.531h4.178a36.335 36.335 0 0 1 .01-4.899z" class="cls-3" data-name="Path 407" transform="translate(-146.515 -26.952)"/>
            <path id="Path_408" d="M172.367 68.521c1.282 9.954 2.674 19.891 3.81 29.862a39.856 39.856 0 0 0 .863 5.716h12.494c-2.16-10.938-4.658-21.789-7.677-32.531-1.179-4.2-3.275-8.332-2.128-12.949-1.487-2.668-1.487-2.668 2.586-2.783a10.256 10.256 0 0 0 2.473-5.928 8.249 8.249 0 0 1 3.167-5.815c1.79-1.561 3.676-3.011 5.406-4.634 1.169-1.1 3.782-2.145 2.309-3.939-1.251-1.519-2.823.644-4.06 1.6a21.717 21.717 0 0 1-7.24 4.186c2.184-3.483 4.712-6.6 7-9.877.746-1.071 2.789-2.5.8-3.895-1.62-1.136-2.436.838-3.33 1.861-2.244 2.573-4.421 5.2-6.677 7.758-.6.675-1.357 1.539-2.369.959-.9-.516-.392-1.475-.233-2.252.763-3.751 1.543-7.493 2.309-11.245.235-1.141.38-2.28-.678-3.149-2-.216-2.735 1.013-3.119 2.7-.833 3.621-1.666 7.24-2.56 10.848-.2.8 0 2.205-1.244 2.073-1.039-.11-1.119-1.386-1.076-2.3.142-3.191-.576-6.343-.217-9.566.341-3.029-.506-3.718-3-3.04a78.213 78.213 0 0 0-1.265 11.731 55.95 55.95 0 0 1-.309 6.838c-.231 1.825-.594 3.895-2.673 4.561-2.052.653-3.5-.747-4.886-2.053-.973-.922-1.952-1.85-3-2.685-1.553-1.24-3.139-1.4-4.724.11 1.081 1.153 2.155 2.255 3.179 3.4 3.442 3.858 6.4 8.339 10.437 11.408 3.513 2.674 5.48 5.378 5.426 9.664a5.455 5.455 0 0 1 .206 3.366z" class="cls-1" data-name="Path 408" transform="translate(-142.619 -21.44)"/>
            <path id="Path_409" d="M183.539 61.411c.746-.053 1.016.543 1.437 1 3.446 3.7 6.093 8.205 10.377 11.037a6.787 6.787 0 0 1 3.268 6.8q-.673 10.865-1.089 21.744a36.335 36.335 0 0 0-.01 4.9h10.236c-.005-.045-.005-.076-.011-.125-1.053-9.36-1.86-18.749-2.771-28.127a5.869 5.869 0 0 1 2.108-5.545 5.338 5.338 0 0 0 2.185-3.645c.366-4.069 2.62-6.824 5.83-9.056a24.634 24.634 0 0 0 3.456-3.125c.572-.59 1.742-1.223.746-2.28s-1.642.092-2.344.573c-2.393 1.642-4.488 3.771-7.51 4.511 2-3.144 4.254-6.046 6.4-9.027.543-.757 1.57-1.817.433-2.716-1.1-.872-1.838.222-2.522 1.012q-3.166 3.624-6.35 7.235c-.5.57-1.077 1.108-1.862.753-.954-.427-.4-1.2-.265-1.872a598.44 598.44 0 0 0 1.943-9.737c.184-.984.569-2.261-.834-2.6s-2.016.686-2.266 1.943c-.141.712-.294 1.42-.48 2.117-.833 3.141-1.677 6.276-2.527 9.448-1.229-.495-1.171-1.273-1.3-1.979a51.586 51.586 0 0 1-.469-9c-.007-.951.388-2.348-1.151-2.43-1.332-.071-1.628 1.223-1.716 2.215-.231 2.579-.269 5.176-.425 7.764-.135 2.275-.236 4.558-.532 6.81-.19 1.434-.658 2.947-2.171 3.54-1.552.6-2.871-.213-3.874-1.325-1.1-1.215-2.647-2.016-3.353-3.6-4.074.119-4.074.119-2.587 2.787z" class="cls-2" data-name="Path 409" transform="translate(-146.429 -24.231)"/>
            <path id="Path_410" d="M165.915 109.392q-3.044-6.972-5.945-14.008c-1.24-3.015-1.885-5.976 1.193-8.444a5.111 5.111 0 0 0 1.578-3.633 6.867 6.867 0 0 1 2.728-4.682c1.814-1.535 3.564-3.146 5.341-4.724a5.455 5.455 0 0 0-.206-3.363c-1.373 3.408-4.648 4.471-7.445 6.189a82.558 82.558 0 0 1 5.113-7.618c.381-.537 1.063-1.277.356-1.932-.9-.838-1.5.078-2.018.669a320.752 320.752 0 0 0-5.029 5.917c-.536.641-1.047 1.546-1.973 1.012-.814-.467-.161-1.285 0-1.954q.924-3.927 1.815-7.865c.166-.739.2-1.529-.716-1.789a1.251 1.251 0 0 0-1.622 1.029c-.234.793-.373 1.622-.663 2.4-.918 2.446-1.021 5.2-2.687 7.867a16.613 16.613 0 0 1-.6-8.281c.154-1.032.551-2.631-1.077-2.721-1.339-.064-1.186 1.44-1.295 2.427-.381 3.495-.774 7-1.078 10.5-.142 1.65-.59 3.214-2.065 3.948-1.617.81-2.64-.745-3.708-1.611-1.044-.844-1.927-1.887-3.33-2.165-.526-.1-1.062-.144-1.38.371-.358.573.071.984.442 1.327 3.563 3.3 5.888 7.792 10.032 10.541a3.428 3.428 0 0 1 1.772 2.778c.08 4.921 1.647 9.575 2.532 14.347.282 1.524.5 2.674.751 3.563h9.222c-.017-.039-.026-.064-.038-.095z" class="cls-2" data-name="Path 410" transform="translate(-141.062 -26.82)"/>
        </g>
    </g>
</svg>
