<svg xmlns="http://www.w3.org/2000/svg" width="191.221" height="76.309" viewBox="0 0 191.221 76.309">
    <defs>
        <style>
            .cls-1{fill:#231f20}.cls-2{fill:#00aeef}
        </style>
    </defs>
    <g id="Group_406" data-name="Group 406" transform="translate(0 -.394)">
        <path id="Path_345" d="M4.095 106.868a3.316 3.316 0 0 0 1.58.527 1.041 1.041 0 0 0 1.023-.651 1.4 1.4 0 0 0-.26-1.537 12.917 12.917 0 0 0-1.2-1.091 5.414 5.414 0 0 1-.877-.908 2.59 2.59 0 0 1-.462-1.025 2.8 2.8 0 0 1-.043-.509 2.564 2.564 0 0 1 .2-1 2.239 2.239 0 0 1 .589-.818 2.15 2.15 0 0 1 1.477-.556 3.636 3.636 0 0 1 1.568.4v1.214a2.637 2.637 0 0 0-1.426-.489 1.082 1.082 0 0 0-1.029.613 1.172 1.172 0 0 0-.161.619 1.456 1.456 0 0 0 .136.62 1.927 1.927 0 0 0 .307.438 4.176 4.176 0 0 0 .412.381l.52.421a12.232 12.232 0 0 1 .918.862 2.515 2.515 0 0 1 .5.8 2.96 2.96 0 0 1 .168.968 2.52 2.52 0 0 1-.292 1.214 2.14 2.14 0 0 1-.827.881 2.431 2.431 0 0 1-1.181.334 2.677 2.677 0 0 1-.809-.121 5.118 5.118 0 0 1-.827-.349z" class="cls-1" data-name="Path 345" transform="translate(-1.242 -31.876)"/>
        <path id="Path_346" d="M10.685 108.5l2.133-9.05h1.141l2.108 9.05h-1.216l-.447-1.785h-2.057l-.421 1.785zm2.7-6.72l-.815 3.92h1.612z" class="cls-1" data-name="Path 346" transform="translate(-3.444 -31.926)"/>
        <path id="Path_347" d="M21.954 108.5h-1.016l-1.984-9.05h1.24l1.265 6.149 1.264-6.149h1.24z" class="cls-1" data-name="Path 347" transform="translate(-6.109 -31.926)"/>
        <path id="Path_348" d="M27.662 108.5v-9.05h3.62v1.091h-2.405v2.7h2.206v1.066h-2.206v3.05h2.405v1.14z" class="cls-1" data-name="Path 348" transform="translate(-8.915 -31.926)"/>
        <path id="Path_349" d="M33.918 108.5l2.926-7.984h-2.5v-1.062h4.166l-2.9 7.91h2.653v1.14z" class="cls-1" data-name="Path 349" transform="translate(-10.931 -31.926)"/>
        <path id="Path_350" d="M46.352 106.868a3.318 3.318 0 0 0 1.58.527 1.041 1.041 0 0 0 1.023-.651 1.4 1.4 0 0 0-.26-1.537 13.033 13.033 0 0 0-1.2-1.091 5.474 5.474 0 0 1-.878-.908 2.6 2.6 0 0 1-.462-1.025 2.863 2.863 0 0 1-.043-.509 2.551 2.551 0 0 1 .2-1 2.239 2.239 0 0 1 .589-.818 2.15 2.15 0 0 1 1.479-.556 3.633 3.633 0 0 1 1.568.4v1.214a2.635 2.635 0 0 0-1.426-.489 1.083 1.083 0 0 0-1.029.613 1.178 1.178 0 0 0-.161.619 1.436 1.436 0 0 0 .136.62 1.946 1.946 0 0 0 .306.438 4.253 4.253 0 0 0 .412.381l.521.421a12.369 12.369 0 0 1 .918.862 2.527 2.527 0 0 1 .5.8 2.958 2.958 0 0 1 .167.968 2.519 2.519 0 0 1-.292 1.216 2.146 2.146 0 0 1-.828.881 2.427 2.427 0 0 1-1.181.334 2.684 2.684 0 0 1-.809-.121 5.093 5.093 0 0 1-.827-.349z" class="cls-1" data-name="Path 350" transform="translate(-14.861 -31.876)"/>
        <path id="Path_351" d="M54.666 108.5v-7.9h-1.687v-1.146h4.587v1.146H55.88v7.91z" class="cls-1" data-name="Path 351" transform="translate(-17.075 -31.926)"/>
        <path id="Path_352" d="M61.029 106.1v-6.646h1.19v6.746q0 1.265 1.19 1.265T64.6 106.2v-6.746h1.19v6.646a4.924 4.924 0 0 1-.1 1.038 1.763 1.763 0 0 1-1.208 1.319 3.459 3.459 0 0 1-2.151 0 1.769 1.769 0 0 1-1.209-1.319 4.976 4.976 0 0 1-.1-1.038" class="cls-1" data-name="Path 352" transform="translate(-19.669 -31.926)"/>
        <path id="Path_353" d="M70.358 108.5v-9.046h1.612a5.712 5.712 0 0 1 1.187.112 2.376 2.376 0 0 1 .936.425 2.448 2.448 0 0 1 .7.877 4.527 4.527 0 0 1 .418 1.4 12.945 12.945 0 0 1 .1 1.72 10.677 10.677 0 0 1-.239 2.39 2.74 2.74 0 0 1-1.026 1.627 2.157 2.157 0 0 1-.911.4 6.268 6.268 0 0 1-1.172.1zm1.215-1.166H72a3.881 3.881 0 0 0 .861-.074 1.217 1.217 0 0 0 .76-.58 2.758 2.758 0 0 0 .337-1 9.2 9.2 0 0 0 .093-1.125q.032-.4.031-.856a9.1 9.1 0 0 0-.059-1.056 5 5 0 0 0-.2-.942 1.905 1.905 0 0 0-.394-.716 1.743 1.743 0 0 0-1.3-.4h-.558z" class="cls-1" data-name="Path 353" transform="translate(-22.676 -31.926)"/>
        <path id="Path_354" d="M79.541 108.5v-9.05h3.62v1.091h-2.405v2.7h2.207v1.066h-2.207v3.05h2.405v1.14z" class="cls-1" data-name="Path 354" transform="translate(-25.635 -31.926)"/>
        <path id="Path_355" d="M86.786 108.5v-9.05h1.141l2.381 6.273v-6.269h1.165v9.05h-1.142l-2.38-6.322v6.318z" class="cls-1" data-name="Path 355" transform="translate(-27.97 -31.926)"/>
        <path id="Path_356" d="M95.017 108.5l2.133-9.05h1.14l2.107 9.05h-1.214l-.447-1.785h-2.057l-.422 1.785zm2.7-6.72l-.817 3.92h1.612z" class="cls-1" data-name="Path 356" transform="translate(-30.623 -31.926)"/>
        <path id="Path_357" d="M104.972 108.5v-7.9h-1.686v-1.146h4.587v1.146h-1.687v7.91z" class="cls-1" data-name="Path 357" transform="translate(-33.288 -31.926)"/>
        <path id="Path_358" d="M109.872 108.5L112 99.454h1.141l2.107 9.05h-1.214l-.447-1.785h-2.058l-.422 1.785zm2.7-6.72l-.818 3.918h1.612z" class="cls-1" data-name="Path 358" transform="translate(-35.411 -31.926)"/>
        <path id="Path_359" d="M123.774 108.5v-9.05h3.62v1.091h-2.405v2.7h2.211v1.066h-2.207v3.05h2.405v1.14z" class="cls-1" data-name="Path 359" transform="translate(-39.891 -31.926)"/>
        <path id="Path_360" d="M130.946 108.5v-9.05h1.215v4.29l2.133-4.29h1.289l-2.157 4.314 2.157 4.736h-1.313l-2.108-4.637v4.637z" class="cls-1" data-name="Path 360" transform="translate(-42.202 -31.926)"/>
        <path id="Path_361" d="M138.117 103.932q0-.879.071-1.645a6.04 6.04 0 0 1 .319-1.463 2.479 2.479 0 0 1 .775-1.124 2.084 2.084 0 0 1 1.357-.428 3.082 3.082 0 0 1 .4.025 1.929 1.929 0 0 1 1.481.858 3.888 3.888 0 0 1 .608 1.647 16.553 16.553 0 0 1 .117 2.107q0 .893-.053 1.572a6.3 6.3 0 0 1-.254 1.345 2.753 2.753 0 0 1-.67 1.146 1.992 1.992 0 0 1-1.23.574 3.318 3.318 0 0 1-.422.025 1.934 1.934 0 0 1-1.639-.716 3.715 3.715 0 0 1-.707-1.714 14.126 14.126 0 0 1-.158-2.207m1.24-.024v.508a7.588 7.588 0 0 0 .257 2.108 1.062 1.062 0 0 0 1.081.879.985.985 0 0 0 .922-.5 2.624 2.624 0 0 0 .344-1.062c.037-.377.062-.847.074-1.414v-.329-.452q0-2.84-.974-3.187a1.4 1.4 0 0 0-.427-.074.85.85 0 0 0-.688.313 2.059 2.059 0 0 0-.39.827 5.949 5.949 0 0 0-.168 1.023c-.024.339-.037.68-.037 1.023z" class="cls-1" data-name="Path 361" transform="translate(-44.514 -31.867)"/>
        <path id="Path_362" d="M147.666 108.5v-9.05h1.141l2.38 6.273v-6.269h1.166v9.05h-1.14l-2.381-6.322v6.318z" class="cls-1" data-name="Path 362" transform="translate(-47.591 -31.926)"/>
        <path id="Path_363" d="M156.557 103.932q0-.879.071-1.645a6.01 6.01 0 0 1 .319-1.463 2.473 2.473 0 0 1 .775-1.124 2.084 2.084 0 0 1 1.357-.428 3.074 3.074 0 0 1 .4.025 1.93 1.93 0 0 1 1.481.858 3.878 3.878 0 0 1 .607 1.647 16.419 16.419 0 0 1 .118 2.107q0 .893-.053 1.572a6.261 6.261 0 0 1-.254 1.345 2.759 2.759 0 0 1-.669 1.146 2 2 0 0 1-1.231.574 3.317 3.317 0 0 1-.422.025 1.935 1.935 0 0 1-1.639-.716 3.715 3.715 0 0 1-.707-1.714 14.126 14.126 0 0 1-.158-2.207m1.24-.024v.508a7.559 7.559 0 0 0 .258 2.108 1.061 1.061 0 0 0 1.081.879.985.985 0 0 0 .92-.5 2.613 2.613 0 0 0 .344-1.062c.037-.377.062-.847.075-1.414v-.329-.452q0-2.84-.973-3.187a1.412 1.412 0 0 0-.428-.074.848.848 0 0 0-.687.313 2.041 2.041 0 0 0-.391.827 5.949 5.949 0 0 0-.168 1.023c-.024.339-.037.68-.037 1.023z" class="cls-1" data-name="Path 363" transform="translate(-50.457 -31.867)"/>
        <path id="Path_364" d="M165.593 108.5l.769-9.05h1.116l1.215 6.273 1.264-6.273h1.066l.794 9.05h-1.14l-.373-6.348-1.189 6.348h-.844l-1.189-6.348-.373 6.348z" class="cls-1" data-name="Path 364" transform="translate(-53.369 -31.926)"/>
        <path id="Path_365" d="M176.161 106.868a3.318 3.318 0 0 0 1.58.527 1.041 1.041 0 0 0 1.023-.651 1.394 1.394 0 0 0-.261-1.537 12.891 12.891 0 0 0-1.2-1.091 5.447 5.447 0 0 1-.878-.908 2.609 2.609 0 0 1-.462-1.025 2.8 2.8 0 0 1-.043-.509 2.563 2.563 0 0 1 .2-1 2.247 2.247 0 0 1 .589-.818 2.153 2.153 0 0 1 1.482-.552 3.631 3.631 0 0 1 1.568.4v1.214a2.635 2.635 0 0 0-1.426-.489 1.08 1.08 0 0 0-1.028.613 1.178 1.178 0 0 0-.161.619 1.446 1.446 0 0 0 .136.62 1.927 1.927 0 0 0 .307.438 4.325 4.325 0 0 0 .411.381l.521.421a12.234 12.234 0 0 1 .918.862 2.515 2.515 0 0 1 .5.8 2.959 2.959 0 0 1 .167.968 2.512 2.512 0 0 1-.291 1.214 2.145 2.145 0 0 1-.827.881 2.43 2.43 0 0 1-1.182.334 2.676 2.676 0 0 1-.809-.121 5.144 5.144 0 0 1-.827-.349z" class="cls-1" data-name="Path 365" transform="translate(-56.697 -31.876)"/>
        <path id="Path_366" d="M183.7 108.5v-9.05h1.215v4.29l2.132-4.29h1.289l-2.157 4.314 2.157 4.736h-1.314l-2.107-4.637v4.637z" class="cls-1" data-name="Path 366" transform="translate(-59.206 -31.926)"/>
        <path id="Path_367" d="M190.874 103.932q0-.879.071-1.645a6.041 6.041 0 0 1 .32-1.463 2.469 2.469 0 0 1 .775-1.124 2.082 2.082 0 0 1 1.357-.428 3.071 3.071 0 0 1 .4.025 1.93 1.93 0 0 1 1.481.858 3.887 3.887 0 0 1 .607 1.647 16.419 16.419 0 0 1 .118 2.107q0 .893-.053 1.572a6.347 6.347 0 0 1-.254 1.345 2.766 2.766 0 0 1-.669 1.146 2 2 0 0 1-1.231.574 3.336 3.336 0 0 1-.422.025 1.935 1.935 0 0 1-1.639-.716 3.737 3.737 0 0 1-.707-1.714 14.206 14.206 0 0 1-.158-2.207m1.24-.024v.508a7.587 7.587 0 0 0 .258 2.108 1.062 1.062 0 0 0 1.082.879.983.983 0 0 0 .92-.5 2.613 2.613 0 0 0 .344-1.062c.037-.377.062-.847.075-1.414v-.329-.452q0-2.84-.973-3.187a1.408 1.408 0 0 0-.427-.074.851.851 0 0 0-.689.313 2.059 2.059 0 0 0-.39.827 5.879 5.879 0 0 0-.167 1.023c-.024.339-.037.68-.037 1.023z" class="cls-1" data-name="Path 367" transform="translate(-61.517 -31.867)"/>
        <path id="Path_368" d="M205.213 103.58q.024.681.024 1.128a11.088 11.088 0 0 1-.064 1.254 4.385 4.385 0 0 1-.266 1.085 2.521 2.521 0 0 1-.58.893 2.056 2.056 0 0 1-.973.524 3.464 3.464 0 0 1-.769.087 2.472 2.472 0 0 1-1.265-.31 2.157 2.157 0 0 1-.852-.986 4.8 4.8 0 0 1-.363-1.418 14.259 14.259 0 0 1 0-3.844 3.015 3.015 0 0 1 1.214-2.4 2.587 2.587 0 0 1 1.345-.335 3.067 3.067 0 0 1 .66.075 2 2 0 0 1 .574.211 1.9 1.9 0 0 1 .771.635 3.227 3.227 0 0 1 .444 1l-1.092.52a1.926 1.926 0 0 0-.459-.962 1.13 1.13 0 0 0-.855-.352 1.88 1.88 0 0 0-.5.075q-1 .316-1 2.821c0 .193 0 .4.012.626q0 .862.047 1.488a4.415 4.415 0 0 0 .226 1.141 1.179 1.179 0 0 0 1.165.868 1.105 1.105 0 0 0 .945-.419 2.069 2.069 0 0 0 .39-.973 10.094 10.094 0 0 0 .077-1.361h-1.289v-1.071z" class="cls-1" data-name="Path 368" transform="translate(-64.45 -31.861)"/>
        <path id="Path_369" d="M214.327 108.5v-9.05h3.694v1.091h-2.479v2.7h2.281v1.091h-2.281v4.168z" class="cls-1" data-name="Path 369" transform="translate(-69.075 -31.926)"/>
        <path id="Path_370" d="M220.473 108.5l2.132-9.05h1.141l2.108 9.05h-1.214l-.447-1.785h-2.058l-.422 1.785zm2.7-6.72l-.819 3.918h1.612z" class="cls-1" data-name="Path 370" transform="translate(-71.056 -31.926)"/>
        <path id="Path_371" d="M229.656 108.5v-9.05h1.215v4.29L233 99.454h1.289l-2.157 4.314 2.157 4.736h-1.314l-2.107-4.637v4.633z" class="cls-1" data-name="Path 371" transform="translate(-74.016 -31.926)"/>
        <path id="Path_372" d="M237.815 106.1v-6.646H239v6.746q0 1.265 1.191 1.265t1.189-1.265v-6.746h1.191v6.646a4.922 4.922 0 0 1-.1 1.038 1.766 1.766 0 0 1-1.208 1.319 3.459 3.459 0 0 1-2.151 0 1.763 1.763 0 0 1-1.208-1.319 4.928 4.928 0 0 1-.1-1.038" class="cls-1" data-name="Path 372" transform="translate(-76.645 -31.926)"/>
        <path id="Path_373" d="M247.144 108.5v-9.05h1.215v7.91h2.6v1.14z" class="cls-1" data-name="Path 373" transform="translate(-79.652 -31.926)"/>
        <path id="Path_374" d="M254.867 108.5v-7.9h-1.686v-1.146h4.587v1.146h-1.686v7.91z" class="cls-1" data-name="Path 374" transform="translate(-81.598 -31.926)"/>
        <path id="Path_375" d="M261.268 108.5v-9.05h3.62v1.091h-2.405v2.7h2.206v1.066h-2.206v3.05h2.405v1.14z" class="cls-1" data-name="Path 375" transform="translate(-84.204 -31.926)"/>
        <path id="Path_376" d="M269.209 108.5v-7.9h-1.686v-1.146h4.587v1.146h-1.686v7.91z" class="cls-1" data-name="Path 376" transform="translate(-86.22 -31.926)"/>
        <path id="Path_377" d="M274.108 108.5l2.133-9.05h1.141l2.108 9.05h-1.214l-.447-1.785h-2.059l-.422 1.785zm2.7-6.72l-.819 3.918h1.611z" class="cls-1" data-name="Path 377" transform="translate(-88.342 -31.926)"/>
        <path id="Path_378" d="M143.456 1.822h-38.879v14.686h38.879zM43.342 28.442a19.371 19.371 0 0 0-7.18-4.083H3.288a15.864 15.864 0 0 0 3.178 6.959 17.561 17.561 0 0 0 10.034 6.05l.159.034h31.118c-.044-.445-.1-.882-.169-1.3a13.116 13.116 0 0 0-4.265-7.657m98.368-4.083h-37.135V37.4h37.134zm-48.7 4.083a19.376 19.376 0 0 0-7.18-4.083H52.959a15.861 15.861 0 0 0 3.177 6.959 17.561 17.561 0 0 0 10.038 6.05l.158.034h31.115a19.57 19.57 0 0 0-.17-1.3 13.115 13.115 0 0 0-4.264-7.657m59.329-11.934h38.878V1.822h-38.879zm0 20.894h37.134V24.359h-37.135zM104.577 59.9h39.355V45.253h-39.355zm47.764 0h20.947V45.253h-20.947zM49.669 54.983a50.589 50.589 0 0 0 20.789 6.347q.556.041 1.627.04a36.075 36.075 0 0 0 7.359-.754 26.449 26.449 0 0 0 6.784-2.379 21.642 21.642 0 0 0 5.653-4.206A20.178 20.178 0 0 0 95 49.706a21.7 21.7 0 0 0 1.778-4.453H53.637zm-7.051-38.475l4.354-10.719Q36.221.394 26.9.394a25.48 25.48 0 0 0-12.7 3.054 21.858 21.858 0 0 0-8.311 7.895 20.844 20.844 0 0 0-2.223 5.165m88.619 0l4.357-10.719Q85.891.394 76.568.394a25.48 25.48 0 0 0-12.695 3.054 21.858 21.858 0 0 0-8.311 7.895 20.844 20.844 0 0 0-2.223 5.165M0 54.983a50.586 50.586 0 0 0 20.789 6.347q.555.041 1.627.04a36.08 36.08 0 0 0 7.359-.754 26.444 26.444 0 0 0 6.783-2.379 21.657 21.657 0 0 0 5.654-4.206 20.151 20.151 0 0 0 3.113-4.324 21.742 21.742 0 0 0 1.775-4.454H3.967z" class="cls-2" data-name="Path 378"/>
    </g>
</svg>
